<?xml version="1.0" standalone="no"?>
<!DOCTYPE svg PUBLIC "-//W3C//DTD SVG 20010904//EN"
 "http://www.w3.org/TR/2001/REC-SVG-20010904/DTD/svg10.dtd">
<svg version="1.0" xmlns="http://www.w3.org/2000/svg"
 width="1224.000000pt" height="1224.000000pt" viewBox="0 0 1224.000000 1224.000000"
 preserveAspectRatio="xMidYMid meet">

<g transform="translate(0.000000,1224.000000) scale(0.100000,-0.100000)"
fill="#000000" stroke="none">
<path d="M5082 9566 c2 -173 7 -318 11 -323 5 -4 82 -9 173 -11 l164 -3 0
-3385 0 -3384 -507 2 -508 3 -3 433 -2 432 24 0 c46 0 205 59 270 100 177 112
296 328 296 538 0 105 -17 179 -66 279 -92 191 -260 318 -474 356 l-64 12 4
50 c3 28 5 100 4 160 -3 319 -178 623 -458 795 -142 88 -274 128 -447 137
-217 11 -394 -34 -568 -145 -35 -23 -56 -31 -59 -23 -2 6 -26 56 -53 111 -112
229 -244 379 -404 458 -158 78 -346 67 -498 -30 -537 -340 -729 -1572 -375
-2409 67 -159 164 -304 270 -405 104 -97 187 -141 321 -169 l27 -5 0 -340 0
-340 -376 0 -375 0 3 -48 3 -47 4693 -3 4692 -2 0 50 0 50 -267 2 -268 3 0
444 0 443 92 23 c139 35 222 83 323 185 134 135 192 274 193 460 0 255 -139
480 -368 593 -96 48 -178 67 -291 67 -187 0 -339 -63 -469 -195 -123 -125
-181 -254 -192 -426 -7 -124 13 -219 75 -342 89 -178 253 -304 450 -345 l82
-17 0 -447 0 -448 -175 0 -175 0 -2 417 -3 418 -45 0 -45 0 -3 -418 -2 -417
-803 2 -802 3 -5 504 -5 504 -475 -1 -475 0 -3 -506 -2 -506 -803 2 -802 3 -2
3383 -2 3382 197 1 c1517 5 3962 2 3969 -4 4 -5 9 -1003 11 -2218 l2 -2209 50
0 50 0 0 2215 c0 1765 3 2215 13 2216 6 0 69 0 140 -1 70 0 143 2 162 6 l35 6
0 319 0 319 -2541 0 -2540 0 3 -314z m4973 -6 l0 -215 -95 -7 c-52 -4 -1148
-7 -2435 -5 l-2340 2 -3 210 c-1 115 0 215 2 222 4 11 471 13 2438 11 l2433
-3 0 -215z m-7683 -3493 c140 -70 259 -205 354 -402 74 -155 73 -145 17 -207
-112 -124 -194 -274 -235 -428 -33 -124 -32 -339 1 -460 51 -183 127 -316 258
-450 46 -46 83 -89 83 -94 0 -26 -87 -262 -126 -338 -94 -190 -223 -336 -353
-401 -124 -62 -111 -123 -111 528 l0 565 -50 0 -50 0 0 -570 0 -570 -27 6
c-103 25 -176 67 -262 148 -194 186 -335 532 -393 966 -19 143 -16 517 6 674
67 485 257 874 496 1014 83 49 137 63 232 59 76 -3 95 -8 160 -40z m1293 -432
c98 -27 254 -108 330 -172 138 -116 236 -270 287 -448 29 -104 32 -315 5 -414
-78 -289 -282 -515 -552 -614 -76 -28 -160 -47 -204 -47 -37 0 -39 13 -36 193
l2 140 181 179 c100 99 182 185 182 192 0 7 -13 25 -30 41 l-30 29 -149 -148
c-82 -81 -151 -144 -154 -139 -3 4 -5 71 -5 148 0 77 0 207 -1 288 l-1 148
-46 -3 -46 -3 1 -282 c0 -155 -2 -288 -5 -296 -3 -9 -56 38 -154 137 l-149
151 -36 -35 -35 -34 187 -188 188 -188 3 -137 c2 -75 1 -151 -2 -168 l-6 -32
-81 14 c-338 58 -595 287 -695 620 -23 77 -27 106 -27 228 -1 114 3 155 21
220 93 336 351 571 702 639 54 10 296 -3 355 -19z m6689 -1070 c274 -71 452
-336 416 -617 -27 -218 -192 -407 -409 -472 -30 -9 -65 -16 -78 -16 l-23 0 0
350 0 350 -50 0 -50 0 0 -350 0 -350 -22 0 c-43 0 -188 58 -244 96 -232 160
-308 463 -181 722 63 129 208 247 353 287 68 18 217 18 288 0z m-5860 -71
c184 -44 341 -203 390 -391 20 -77 20 -192 1 -268 -47 -180 -209 -343 -389
-391 -93 -25 -85 -44 -88 214 l-3 227 -45 0 -45 -1 -3 -228 -2 -228 -43 6
c-200 30 -387 207 -438 415 -15 62 -23 52 100 120 170 93 339 287 408 471 13
35 27 68 29 72 5 8 39 3 128 -18z m-1463 -563 c98 -46 207 -78 296 -87 l63 -7
2 -598 c1 -330 3 -638 3 -686 l0 -88 -565 0 -565 0 -3 342 -2 341 41 7 c22 4
77 25 122 48 63 31 102 60 168 126 98 98 145 165 217 306 50 98 122 281 122
308 0 12 9 27 15 27 1 0 40 -18 86 -39z m703 -100 c3 -22 18 -68 33 -103 85
-202 248 -338 460 -386 l78 -18 3 -432 2 -432 -404 0 -404 0 -4 48 c-2 26 -2
335 0 687 l5 641 91 15 c139 24 132 25 140 -20z m4195 -457 l71 -7 0 -453 0
-454 -377 2 -378 3 -3 445 c-1 245 0 450 2 456 5 12 572 20 685 8z"/>
<path d="M8383 8733 l-423 -3 0 -355 0 -355 540 0 540 0 -2 358 -3 357 -115 0
c-63 0 -305 -1 -537 -2z m557 -356 l0 -254 -97 -5 c-54 -3 -226 -3 -383 -2
-157 2 -311 4 -342 4 l-58 0 0 255 0 255 440 0 440 0 0 -253z"/>
<path d="M6230 8376 c0 -329 1 -354 18 -357 9 -2 252 -3 540 -1 l522 3 0 354
0 355 -540 0 -540 0 0 -354z m980 -1 l0 -254 -397 -3 c-218 -2 -416 -1 -440 1
l-43 3 0 254 0 254 440 0 440 0 0 -255z"/>
<path d="M3793 7682 l-1423 -2 0 -320 0 -320 148 -1 c81 -1 158 -2 172 -3 l25
-1 3 -437 2 -438 50 0 50 0 2 438 3 437 1203 3 1203 2 -3 48 -3 47 -1320 2
c-726 1 -1346 2 -1378 3 l-57 0 2 218 3 217 185 6 c102 4 722 7 1378 8 l1192
1 0 44 c0 25 -3 46 -7 48 -5 2 -648 2 -1430 0z"/>
<path d="M6228 7573 c-2 -60 -2 -219 0 -355 l3 -248 540 0 539 0 0 355 0 355
-539 0 -540 0 -3 -107z m980 -245 l2 -258 -440 0 -440 0 0 255 0 254 78 3 c42
2 239 3 437 3 l360 0 3 -257z"/>
<path d="M7960 7325 l0 -355 540 0 540 0 0 355 0 355 -540 0 -540 0 0 -355z
m933 259 l47 -6 0 -254 0 -254 -440 0 -440 0 0 254 0 255 53 3 c109 6 734 8
780 2z"/>
<path d="M6230 6281 l0 -361 540 0 540 0 0 355 0 355 -502 0 c-277 0 -520 3
-540 6 l-38 7 0 -362z m980 -6 l0 -254 -377 -3 c-208 -2 -406 -1 -440 0 l-63
4 0 254 0 254 440 0 440 0 0 -255z"/>
<path d="M3192 6373 l3 -258 986 -3 c785 -2 988 0 990 10 2 7 3 124 1 261 l-3
247 -990 0 -989 0 2 -257z m1882 120 c3 -21 6 -90 6 -154 0 -97 -3 -118 -16
-123 -9 -3 -411 -6 -895 -6 l-879 0 0 160 0 160 889 0 888 0 7 -37z"/>
<path d="M7960 6275 l0 -355 540 0 540 0 0 355 0 355 -540 0 -540 0 0 -355z
m980 0 l0 -255 -440 0 -440 0 0 255 0 255 440 0 440 0 0 -255z"/>
<path d="M4240 5749 c0 -44 2 -49 23 -50 12 -1 196 -2 409 -3 212 0 389 -3
391 -6 10 -10 20 -297 10 -303 -5 -3 -132 -9 -281 -13 l-273 -7 3 -46 c3 -43
5 -46 33 -50 17 -1 162 0 323 4 l292 7 0 257 0 256 -465 2 -465 1 0 -49z"/>
<path d="M6230 5225 l0 -355 540 0 540 0 0 355 0 355 -540 0 -540 0 0 -355z
m903 259 l77 -7 0 -253 0 -254 -440 0 -440 0 0 253 c0 140 2 256 5 259 9 8
711 10 798 2z"/>
<path d="M7960 5225 l0 -355 540 0 540 0 0 355 0 355 -540 0 -540 0 0 -355z
m873 258 l107 -6 0 -254 0 -253 -440 0 -440 0 0 253 c0 140 3 257 7 260 8 9
627 9 766 0z"/>
<path d="M6343 4533 l-113 -4 0 -354 0 -355 540 0 540 0 0 354 c0 313 -2 355
-16 360 -15 6 -730 5 -951 -1z m865 -355 l2 -258 -440 0 -440 0 0 255 0 254
58 4 c31 2 228 3 437 3 l380 -1 3 -257z"/>
<path d="M7966 4533 c-3 -4 -6 -165 -6 -360 l0 -353 540 0 540 0 0 360 0 360
-534 0 c-293 -1 -536 -4 -540 -7z m928 -99 l46 -7 0 -253 0 -254 -440 0 -440
0 0 254 0 255 38 4 c64 7 747 7 796 1z"/>
</g>
</svg>
