<?xml version="1.0" standalone="no"?>
<!DOCTYPE svg PUBLIC "-//W3C//DTD SVG 20010904//EN"
 "http://www.w3.org/TR/2001/REC-SVG-20010904/DTD/svg10.dtd">
<svg version="1.0" xmlns="http://www.w3.org/2000/svg"
 width="1224.000000pt" height="1224.000000pt" viewBox="0 0 1224.000000 1224.000000"
 preserveAspectRatio="xMidYMid meet">

<g transform="translate(0.000000,1224.000000) scale(0.100000,-0.100000)"
fill="#000000" stroke="none">
<path d="M4181 10999 c-205 -40 -414 -175 -537 -345 -54 -75 -118 -208 -141
-294 -17 -62 -18 -276 -18 -4245 l0 -4180 32 -95 c78 -229 239 -417 448 -522
28 -14 88 -39 135 -54 l85 -29 1925 0 1925 0 88 28 c204 64 374 186 486 350
43 64 104 196 127 277 18 63 19 201 22 4185 2 3005 0 4141 -8 4199 -48 336
-312 627 -648 712 l-95 24 -1891 -1 c-1040 -1 -1911 -5 -1935 -10z m2979 -169
c943 -8 882 -3 1040 -82 68 -34 102 -60 172 -130 100 -101 155 -198 185 -325
17 -75 18 -243 18 -4173 l0 -4095 -23 -84 c-67 -253 -259 -444 -510 -509 -62
-16 -200 -17 -1922 -17 -2090 0 -1905 -7 -2080 78 -166 81 -306 256 -358 447
-16 61 -17 295 -17 4185 0 3867 1 4124 17 4182 56 200 205 380 380 457 134 59
130 59 698 66 752 8 1434 9 2400 0z"/>
<path d="M5390 10515 c0 -43 48 -93 130 -133 l55 -27 530 0 c586 0 583 0 675
66 41 30 84 99 65 105 -5 2 -335 5 -733 6 -719 3 -722 3 -722 -17z"/>
<path d="M6030 2849 c-282 -49 -480 -280 -480 -561 0 -165 56 -302 166 -413
172 -172 436 -213 661 -103 93 45 209 160 251 249 51 106 65 179 59 294 -4 84
-10 114 -37 178 -72 174 -203 291 -381 341 -73 20 -172 27 -239 15z m245 -218
c200 -91 285 -323 189 -518 -34 -70 -105 -140 -180 -178 -54 -28 -67 -30 -164
-30 -99 0 -110 2 -171 32 -81 40 -140 102 -182 191 -28 59 -32 77 -31 152 0
74 4 94 31 152 96 205 310 289 508 199z"/>
</g>
</svg>
