<?xml version="1.0" standalone="no"?>
<!DOCTYPE svg PUBLIC "-//W3C//DTD SVG 20010904//EN"
 "http://www.w3.org/TR/2001/REC-SVG-20010904/DTD/svg10.dtd">
<svg version="1.0" xmlns="http://www.w3.org/2000/svg"
 width="1224.000000pt" height="1224.000000pt" viewBox="0 0 1224.000000 1224.000000"
 preserveAspectRatio="xMidYMid meet">

<g transform="translate(0.000000,1224.000000) scale(0.100000,-0.100000)"
fill="#000000" stroke="none">
<path d="M5907 8161 c-45 -9 -104 -55 -132 -102 -19 -32 -20 -55 -23 -356 l-3
-323 -803 0 c-762 0 -807 -1 -879 -19 -41 -11 -93 -29 -114 -39 -106 -55 -203
-167 -254 -297 l-24 -60 -3 -1209 c-3 -1334 -6 -1262 61 -1396 41 -82 143
-187 219 -224 121 -59 -14 -56 2158 -56 2178 0 2045 -3 2167 56 113 54 225
187 263 312 19 62 20 95 20 1286 l0 1221 -24 68 c-57 162 -174 275 -345 335
-41 14 -142 17 -878 19 l-833 4 0 293 c0 311 -5 353 -50 416 -12 17 -40 40
-63 53 -39 20 -57 22 -232 24 -104 1 -207 -2 -228 -6z m425 -106 c25 -17 40
-37 47 -63 7 -23 11 -201 11 -469 l0 -433 -275 0 -275 0 0 456 0 456 39 39 39
39 189 0 c185 0 189 -1 225 -25z m-582 -865 l0 -99 -43 -19 c-86 -38 -121
-138 -78 -224 43 -86 23 -83 476 -86 400 -2 400 -2 440 21 91 51 110 168 39
246 -18 21 -48 42 -66 47 l-33 10 -3 102 -3 102 809 0 c891 0 874 1 981 -63
100 -60 178 -175 201 -296 14 -75 13 -2324 -1 -2406 -31 -176 -181 -324 -360
-355 -45 -8 -634 -10 -2029 -8 l-1965 3 -59 22 c-142 54 -244 165 -282 307
-11 42 -14 264 -14 1238 0 1134 1 1189 19 1247 47 151 154 255 304 296 43 11
197 14 860 14 l807 1 0 -100z m765 -215 c30 -29 32 -73 5 -102 -29 -31 -86
-35 -454 -31 l-327 3 -19 25 c-26 33 -25 78 2 107 l21 23 374 0 374 0 24 -25z"/>
<path d="M5045 6691 c-93 -26 -163 -69 -241 -146 -111 -109 -165 -235 -167
-388 -3 -191 84 -362 239 -473 36 -25 64 -48 62 -49 -2 -1 -43 -18 -91 -38
-281 -114 -488 -343 -572 -633 -45 -156 -28 -245 55 -286 33 -17 95 -18 870
-18 l835 0 40 23 c55 31 88 96 80 157 -10 73 -45 188 -80 266 -97 212 -288
397 -501 483 -43 17 -87 35 -96 39 -14 6 -4 17 49 57 78 58 153 146 189 223
80 168 66 384 -35 539 -79 122 -203 213 -337 248 -77 20 -222 18 -299 -4z
m309 -93 c196 -64 327 -247 326 -456 -1 -181 -107 -345 -278 -429 -76 -38 -77
-38 -202 -38 -124 0 -126 0 -201 37 -227 111 -331 366 -246 602 88 241 352
366 601 284z m-14 -1033 c102 -18 166 -38 245 -78 165 -82 303 -214 390 -371
34 -63 81 -205 90 -273 6 -44 4 -54 -14 -72 -21 -21 -23 -21 -849 -21 -825 0
-829 0 -848 21 -25 28 -21 85 12 190 32 102 63 165 119 244 49 68 159 177 225
222 186 126 413 176 630 138z"/>
<path d="M6267 6253 c-4 -3 -7 -19 -7 -35 0 -21 6 -31 26 -38 28 -11 1659 -12
1709 -1 26 5 30 10 30 41 l0 35 -876 3 c-481 1 -879 -1 -882 -5z"/>
<path d="M6273 5723 c-21 -8 -16 -61 7 -73 14 -7 286 -10 875 -8 748 3 857 5
865 18 15 23 12 57 -6 64 -19 7 -1723 7 -1741 -1z"/>
<path d="M6272 5188 c-7 -7 -12 -21 -12 -33 0 -12 5 -26 12 -33 16 -16 1709
-17 1739 -2 11 6 19 21 19 35 0 14 -8 29 -19 35 -30 15 -1723 14 -1739 -2z"/>
</g>
</svg>
